<svg xmlns="http://www.w3.org/2000/svg" xmlns:xlink="http://www.w3.org/1999/xlink" viewBox="0 0 24 24" >
<path d="M8.3,13.5c2.5,0,4.5-2,4.5-4.5s-2-4.5-4.5-4.5S3.9,6.5,3.9,9S5.9,13.5,8.3,13.5z M8.3,5.5c1.9,0,3.5,1.6,3.5,3.5
	s-1.6,3.5-3.5,3.5S4.9,10.9,4.9,9S6.4,5.5,8.3,5.5z M21.7,13.2h-7.4l-1.4,1.9H3.1L0,19.3l0.8,0.6l2.8-3.8h9.3l2.9,3.8l0.8-0.6
	l-2.8-3.7l1-1.4h6.4l2,2.6l0.8-0.6L21.7,13.2z M18,12.4c1.8,0,3.3-1.5,3.3-3.3S19.8,5.8,18,5.8s-3.3,1.5-3.3,3.3
	C14.8,10.9,16.3,12.4,18,12.4z M18,6.8c1.3,0,2.3,1,2.3,2.3s-1,2.3-2.3,2.3c-1.2,0-2.3-1.1-2.3-2.3C15.8,7.8,16.9,6.8,18,6.8z" />
</svg>
