<?xml version="1.0" encoding="UTF-8"?>
<svg xmlns="http://www.w3.org/2000/svg" viewBox="0 0 720 125" id="i3s-logo">
	<g>
		<polygon points="44.74 21.88 31.92 98.92 37.87 98.92 50.69 21.88 44.74 21.88" />
		<polygon
			points="103.41 21.88 92.03 89.92 76.94 21.88 69.33 21.88 56.51 98.92 61.15 98.92 73.37 25.06 89.67 98.92 95.11 98.92 108.05 21.88 103.41 21.88" />
		<path
			d="M138.67,56.16c-7.63-3.88-12.35-7.94-12.35-16.22,0-7.13,4.22-14.34,12.3-14.34,6.67,0,11.22,4.22,13.52,12.56l4.87-1.9c-2.69-10.4-8.56-15.46-17.91-15.46-11.2,0-19.02,8.46-19.02,20.58,0,8.46,3.29,13.71,11.34,18.12l.67,.37c8.77,4.84,15.11,8.34,15.11,18.7s-5.96,16.62-14.82,16.62c-6.11,0-13.68-2.79-15.87-15.77l-5.13,1.53c2.05,12.8,8.82,19.03,20.65,19.03,13.01,0,21.42-9.11,21.42-23.22,0-6.2,0-13.23-14.77-20.62Z" />
		<polygon points="176.49 21.88 163.67 98.92 169.63 98.92 182.45 21.88 176.49 21.88" />
		<path
			d="M236.6,48.46c0-11.8-3.82-20.54-10.47-23.99-3.4-1.82-7.6-2.59-14.07-2.59h-10.97l-12.82,77.04h11.43c15.67,0,21.88-4.68,27.31-12.78,5.64-8.46,9.58-23.96,9.58-37.68Zm-15.03,35.42c-4.87,7.09-11.34,10.12-21.63,10.12h-4.89l11.3-67.44h6.19c11.49,0,17.82,8.25,17.82,23.22,0,13.3-4.56,28.06-8.79,34.1Z" />
		<polygon
			points="291.42 21.88 258.33 21.88 245.51 98.92 280.75 98.92 281.57 94 252.28 94 257.83 61.24 280.63 61.24 281.44 56.56 258.52 56.56 263.59 26.56 290.69 26.56 291.42 21.88" />
	</g>
	<path
		d="M338.94,38.38c0,11.04-5.04,17.76-14.52,21,6.72,2.88,9.84,8.76,9.84,17.76,0,13.2-8.4,24.72-22.68,24.72-11.04,0-18.72-6.96-20.52-19.32l7.68-2.64c1.56,9.6,6.12,14.64,13.44,14.64s13.08-6.12,13.08-17.28c0-9.6-4.56-14.76-13.56-14.76-1.56,0-2.4,.12-3.48,.24l1.32-7.56h6.36c10.2,0,14.16-7.92,14.16-16.8,0-7.56-3.6-11.4-9.36-11.4-6.12,0-10.08,3.48-13.08,11.52l-6.6-3.48c3.36-10.08,11.16-15.36,20.4-15.36,10.68,0,17.52,6.6,17.52,18.72Z" />
	<g>
		<path
			d="M380.7,43.66c-1.44-7.2-3.96-10.2-8.28-10.2-3.96,0-6.84,3.36-6.84,7.8,0,3.24,1.56,6.24,7.92,10.44,10.32,6.84,18.12,12.6,18.12,23.28,0,16.2-9.72,27.36-24.96,27.36-13.8,0-21.96-8.4-23.4-24.24l14.16-2.76c.36,8.76,4.68,12.72,9.96,12.72s8.04-3.36,8.04-9.24c0-4.32-1.32-6.36-9.96-12-7.08-4.56-11.64-8.64-13.2-11.88-1.56-3.12-2.4-6.36-2.4-9.84,0-14.76,10.08-25.8,22.8-25.8,11.16,0,19.32,7.2,21.72,19.68l-13.68,4.68Z" />
		<path d="M403.5,100.78l11.04-65.88h-13.8l2.4-14.16h43.32l-2.28,14.16h-13.68l-11.04,65.88h-15.96Z" />
		<path
			d="M471.78,100.78l-3.84-32.04h-5.4l-5.4,32.04h-15.96l13.32-80.04h21c14.76,0,21.12,8.04,21.12,21.6,0,10.32-4.08,20.16-13.8,23.64l6.48,34.8h-17.52Zm-3.6-44.64c9.6,0,12.24-6.24,12.24-13.92,0-4.92-1.56-8.88-9.24-8.88h-2.76l-3.84,22.8h3.6Z" />
		<path d="M498.3,100.78l13.32-80.04h16.08l-13.44,80.04h-15.96Z" />
		<path
			d="M526.85,100.78l13.32-80.04h18.6c15.96,0,22.68,8.52,22.68,22.44,0,17.16-10.8,27.48-24.96,27.48h-8.64l-5.04,30.12h-15.96Zm28.8-43.44c6.24,0,9.6-5.04,9.6-14.52,0-5.88-1.92-8.88-7.32-8.88h-3.96l-3.96,23.4h5.64Z" />
		<path
			d="M579.89,100.78l13.32-80.04h41.4l-2.16,13.68h-25.56l-3,18.72h20.88l-2.4,13.2h-20.76l-3.36,20.4h26.28l-2.52,14.04h-42.12Z" />
		<path
			d="M668.69,43.66c-1.44-7.2-3.96-10.2-8.28-10.2-3.96,0-6.84,3.36-6.84,7.8,0,3.24,1.56,6.24,7.92,10.44,10.32,6.84,18.12,12.6,18.12,23.28,0,16.2-9.72,27.36-24.96,27.36-13.8,0-21.96-8.4-23.4-24.24l14.16-2.76c.36,8.76,4.68,12.72,9.96,12.72s8.04-3.36,8.04-9.24c0-4.32-1.32-6.36-9.96-12-7.08-4.56-11.64-8.64-13.2-11.88-1.56-3.12-2.4-6.36-2.4-9.84,0-14.76,10.08-25.8,22.8-25.8,11.16,0,19.32,7.2,21.72,19.68l-13.68,4.68Z" />
	</g>
</svg>
