<svg xmlns="http://www.w3.org/2000/svg" xmlns:xlink="http://www.w3.org/1999/xlink">
	<defs>
		<symbol viewBox="0 0 16 24" id="arrow-down">
			<path fill="none" stroke="currentColor" stroke-linecap="square" stroke-miterlimit="10" stroke-width="2"
				d="M1.5 9L8 15.5 14.5 9" />
		</symbol>
		<symbol viewBox="0 0 10 24" id="arrow-left">
			<path fill="none" stroke="currentColor" stroke-miterlimit="10" stroke-width="2" d="M8 5.5L1.5 12 8 18.5" />
		</symbol>
		<symbol viewBox="0 0 10 24" id="arrow-right">
			<path fill="none" stroke="currentColor" stroke-miterlimit="10" stroke-width="2" d="M2 5.5L8.5 12 2 18.5" />
		</symbol>
		<symbol viewBox="0 0 24 24" id="arrow-right-long">
			<path d="M17.59 7l5 5-5 5M0 12h22" fill="none" stroke="currentColor" stroke-miterlimit="10"
				stroke-width="2" />
		</symbol>
		<symbol viewBox="0 0 16 24" id="arrow-up">
			<path fill="none" stroke="currentColor" stroke-miterlimit="10" stroke-width="2" d="M1.5 14.5L8 8l6.5 6.5" />
		</symbol>
		<symbol viewBox="0 0 20 24" id="calendar-inactive">
			<g fill="none" stroke="currentColor" stroke-miterlimit="10">
				<path stroke-width="2.011" d="M1 10h18v11H1z" />
				<path stroke-width="2" d="M1 4h18v6H1zm14-3v6M5 7V1" />
			</g>
		</symbol>
		<symbol viewBox="0 0 16 24" id="checkbox-checkmark">
			<path fill="none" stroke="currentColor" stroke-miterlimit="10" stroke-width="2" d="M1 13l4 4L15 7" />
		</symbol>
		<symbol viewBox="0 0 18 24" id="close">
			<path d="M17 4l-8 8 8 8M1 4l8 8-8 8" fill="none" stroke="currentColor" stroke-miterlimit="10"
				stroke-width="2" />
		</symbol>
		<symbol viewBox="0 0 173.4 40" id="cw-adidas">
			<path id="cw-adidas_Pfad_1" d="M23.8,39.4h7.3V10h-7.3v2.4C16.9,7.6,7.5,9.3,2.7,16.2s-3.1,16.3,3.8,21.1c5.2,3.6,12.1,3.6,17.3,0L23.8,39.4z
	 M7.1,24.8c0-4.6,3.8-8.4,8.4-8.4s8.4,3.8,8.4,8.4s-3.8,8.4-8.4,8.4l0,0C10.9,33.2,7.1,29.5,7.1,24.8C7.1,24.9,7.1,24.8,7.1,24.8
	 M57.9,0v12.4c-6.9-4.8-16.3-3-21.1,3.8s-3,16.3,3.8,21.1c5.2,3.6,12.1,3.6,17.3,0v2.1h7.3V0H57.9z M41.2,24.8
	c0-4.6,3.8-8.4,8.4-8.4s8.4,3.8,8.4,8.4s-3.8,8.4-8.4,8.4l0,0C45,33.2,41.2,29.5,41.2,24.8C41.2,24.9,41.2,24.8,41.2,24.8 M76.1,0
	h-7.3v7.3h7.3V0z M76.1,10h-7.3v29.4h7.3V10z M102.9,0v12.4c-6.9-4.8-16.3-3.1-21.1,3.8c-4.8,6.9-3.1,16.3,3.8,21.1
	c5.2,3.6,12.1,3.6,17.3,0v2.1h7.3V0H102.9z M86.2,24.8c0-4.6,3.8-8.4,8.4-8.4s8.4,3.8,8.4,8.4s-3.8,8.4-8.4,8.4l0,0
	C90,33.2,86.2,29.5,86.2,24.8C86.2,24.9,86.2,24.8,86.2,24.8 M137.1,39.4h7.3V10h-7.3v2.4c-6.9-4.8-16.3-3.1-21.1,3.8
	c-4.8,6.9-3.1,16.3,3.8,21.1c5.2,3.6,12.1,3.6,17.3,0V39.4z M120.4,24.8c0-4.6,3.8-8.4,8.4-8.4c4.6,0,8.4,3.8,8.4,8.4
	s-3.8,8.4-8.4,8.4l0,0C124.1,33.2,120.4,29.5,120.4,24.8C120.4,24.9,120.4,24.8,120.4,24.8 M147.1,29.8c0.2,5.9,5.3,10.1,13.7,10.1
	c6.9,0,12.6-3,12.6-9.6c0-4.6-2.6-7.3-8.6-8.4l-4.7-0.9c-3-0.6-5.1-1.1-5.1-2.9c0-2,2-2.8,4.5-2.8c3.7,0,5.2,1.8,5.3,4h7.4
	c-0.4-5.8-5-9.6-12.4-9.6c-7.6,0-12.2,4.2-12.2,9.7c0,6.7,5.4,7.8,10.1,8.6l3.9,0.7c2.8,0.5,4,1.3,4,2.9c0,1.4-1.4,2.9-4.7,2.9
	c-4.8,0-6.3-2.5-6.4-4.6L147.1,29.8z" />
		</symbol>
		<symbol viewBox="0 0 173.4 40" id="cw-adidas-company">
			<path id="cw-adidas-company_Pfad_1" d="M23.8,39.4h7.3V10h-7.3v2.4C16.9,7.6,7.5,9.3,2.7,16.2s-3.1,16.3,3.8,21.1c5.2,3.6,12.1,3.6,17.3,0L23.8,39.4z
	 M7.1,24.8c0-4.6,3.8-8.4,8.4-8.4s8.4,3.8,8.4,8.4s-3.8,8.4-8.4,8.4l0,0C10.9,33.2,7.1,29.5,7.1,24.8C7.1,24.9,7.1,24.8,7.1,24.8
	 M57.9,0v12.4c-6.9-4.8-16.3-3-21.1,3.8s-3,16.3,3.8,21.1c5.2,3.6,12.1,3.6,17.3,0v2.1h7.3V0H57.9z M41.2,24.8
	c0-4.6,3.8-8.4,8.4-8.4s8.4,3.8,8.4,8.4s-3.8,8.4-8.4,8.4l0,0C45,33.2,41.2,29.5,41.2,24.8C41.2,24.9,41.2,24.8,41.2,24.8 M76.1,0
	h-7.3v7.3h7.3V0z M76.1,10h-7.3v29.4h7.3V10z M102.9,0v12.4c-6.9-4.8-16.3-3.1-21.1,3.8c-4.8,6.9-3.1,16.3,3.8,21.1
	c5.2,3.6,12.1,3.6,17.3,0v2.1h7.3V0H102.9z M86.2,24.8c0-4.6,3.8-8.4,8.4-8.4s8.4,3.8,8.4,8.4s-3.8,8.4-8.4,8.4l0,0
	C90,33.2,86.2,29.5,86.2,24.8C86.2,24.9,86.2,24.8,86.2,24.8 M137.1,39.4h7.3V10h-7.3v2.4c-6.9-4.8-16.3-3.1-21.1,3.8
	c-4.8,6.9-3.1,16.3,3.8,21.1c5.2,3.6,12.1,3.6,17.3,0V39.4z M120.4,24.8c0-4.6,3.8-8.4,8.4-8.4c4.6,0,8.4,3.8,8.4,8.4
	s-3.8,8.4-8.4,8.4l0,0C124.1,33.2,120.4,29.5,120.4,24.8C120.4,24.9,120.4,24.8,120.4,24.8 M147.1,29.8c0.2,5.9,5.3,10.1,13.7,10.1
	c6.9,0,12.6-3,12.6-9.6c0-4.6-2.6-7.3-8.6-8.4l-4.7-0.9c-3-0.6-5.1-1.1-5.1-2.9c0-2,2-2.8,4.5-2.8c3.7,0,5.2,1.8,5.3,4h7.4
	c-0.4-5.8-5-9.6-12.4-9.6c-7.6,0-12.2,4.2-12.2,9.7c0,6.7,5.4,7.8,10.1,8.6l3.9,0.7c2.8,0.5,4,1.3,4,2.9c0,1.4-1.4,2.9-4.7,2.9
	c-4.8,0-6.3-2.5-6.4-4.6L147.1,29.8z" />
		</symbol>
		<symbol viewBox="0 0 24 24" id="cw-download">
			<path
				d="M12,17.3l-5.7-5.7l1.4-1.4l3.3,3.3l0-11.1l2,0l0,11.1l3.3-3.3l1.4,1.4L12,17.3z M23,20.4v-3h-2v3H3v-3H1v3v2h22V20.4z" />
		</symbol>
		<symbol viewBox="0 0 24 24" id="cw-facebook">
			<path d="M22.8,0H1.3C0.6,0,0,0.5,0,1.2c0,0,0,0.1,0,0.1v21.4C0,23.4,0.5,24,1.2,24c0,0,0.1,0,0.1,0h11.5v-9.3H9.7v-3.6h3.2V8.4
	c0-3.1,1.9-4.8,4.7-4.8c1.3,0,2.5,0.1,2.8,0.1V7h-2c-1.5,0-1.8,0.8-1.8,1.7V11h3.6l-0.7,3.7h-3.2V24h6.1c0.7,0,1.3-0.5,1.3-1.2
	c0,0,0-0.1,0-0.1V1.3c0.1-0.6-0.3-1.2-0.9-1.3C23,0,22.9,0,22.8,0z" />
		</symbol>
		<symbol viewBox="0 0 24 24" id="cw-fax">
			<path d="M20,6V1H4v5H0v14h4v3h16v-3h4V6H20z M5,2h14v8H5V2z M19,22H5v-2h14V22z M23,19h-3v0H4v0H1V7h3v4h16V7h3V19z M4.1,15.2h2v2
	h-2V15.2z M17.5,5h-11V4h11V5z M17.5,8h-11V7h11V8z" />
		</symbol>
		<symbol viewBox="0 0 10 10" id="cw-functional-arrow-external">
			<g>
				<polygon id="cw-functional-arrow-external_Path"
					points="10 0 10 9 8 9 8 3.4 1.7 9.7 0.3 8.3 6.6 2 1 2 1 0" />
			</g>
		</symbol>
		<symbol viewBox="0 0 24 24" id="cw-open-external">
			<path d="M15.8344 4.0673V2H22.037V8.20191H19.9705V5.52888L12.9646 12.5342L11.5 11.0754L18.5088 4.0673H15.8344Z"
				fill="black" />
			<path d="M3 21V5H12V7H5V19H17V12H19V21H3Z" fill="black" />
		</symbol>
		<symbol viewBox="0 0 24 24" id="cw-gameplana">
			<path
				d="m20.3 15.1 2.8 8.5h-6.8l-1-3.3h-7.8l-1 3.3h-6.5l2.8-8.6h3.7l4.7-14h8.1l4.7 14.1zm-7.5-.1h4.6l-2.3-7.6z" />
		</symbol>
		<symbol viewBox="0 0 24 24" id="cw-linkedin">
			<path d="M22.2,24H1.8c-1,0-1.8-0.8-1.8-1.7V1.7C0,0.8,0.8,0,1.8,0h20.5c0.5,0,0.9,0.2,1.3,0.5C23.8,0.8,24,1.3,24,1.7v20.5
	C24,23.2,23.2,24,22.2,24z M15,11.8c1.8,0,1.8,1.8,1.8,3v5.6h3.6v-6.3c0-2.8-0.5-5.5-4.3-5.5c-1.4,0-2.7,0.7-3.4,1.8h0V9H9.4v11.5
	h3.6v-5.7C12.9,13.3,13.2,11.8,15,11.8z M3.6,9v11.5h3.6V9H3.6z M5.3,3.3c-1.1,0-2.1,0.9-2.1,2.1c0,1.1,0.9,2.1,2.1,2.1
	c1.1,0,2.1-0.9,2.1-2.1C7.4,4.2,6.5,3.3,5.3,3.3z" />
		</symbol>
		<symbol viewBox="0 0 24 24" id="cw-mail">
			<path d="M0.5,5.2v13.6h23V5.2H0.5z M17.1,11.6l-0.7,0.7l5.4,5.4H2.2l5.4-5.4l-0.7-0.7l-5.4,5.4V6.8l10.5,9l10.5-9v10.3L17.1,11.6z
	 M2.4,6.2h19.3L12,14.5L2.4,6.2z" />
		</symbol>
		<symbol viewBox="0 0 24 24.1" id="cw-phone">
			<path d="M5.4,0.6v23H19v-23H5.4z M18,1.6v2.1H6.4V1.6H18z M13,19.2c0.2,0.2,0.3,0.5,0.3,0.8c0,0.6-0.5,1.1-1.1,1.1
	c-0.6,0-1.1-0.5-1.1-1.1s0.5-1.1,1.1-1.1h0C12.5,18.8,12.8,18.9,13,19.2z M12.2,17.8L12.2,17.8H6.4V4.7H18v13.1H12.2z M6.4,22.6
	v-3.7h4c-0.2,0.3-0.3,0.7-0.3,1.1c0,1.1,0.9,2.1,2.1,2.1s2.1-0.9,2.1-2.1v0c0-0.4-0.1-0.8-0.3-1.1h4v3.7H6.4z" />
		</symbol>
		<symbol viewBox="0 0 24 24" id="cw-pin">
			<path d="M20.2,8.3c0-4.3-3.5-7.8-7.8-7.8S4.5,4,4.5,8.3c0,1.6,0.5,3.1,1.3,4.3l0,0L12.3,24l6.5-11.4l0,0
	C19.7,11.4,20.2,9.9,20.2,8.3z M12.3,1.5c3.8,0,6.8,3.1,6.8,6.8c0,3.8-3.1,6.8-6.8,6.8c-3.8,0-6.8-3.1-6.8-6.8S8.6,1.5,12.3,1.5z
	 M8.3,15.1c1.2,0.7,2.5,1.1,4,1.1c1.5,0,2.8-0.4,4-1.1l-4,6.9L8.3,15.1z" />
		</symbol>
		<symbol viewBox="0 0 24 24" id="cw-question">
			<style type="text/css">
				#cw-question .st0 {
					fill: none;
					stroke: #000000;
				}
			</style>
			<circle class="st0" cx="12" cy="12" r="11.5" />
			<path d="M11.4,18.1h1v-1h-1V18.1z" />
			<path d="M12.4,6.9c-1.8,0-3.3,1.3-3.6,3.1h1c0.3-1.4,1.6-2.3,3-2s2.3,1.6,2,3c-0.2,1.2-1.3,2.1-2.5,2.1h-1v3.1h1v-2
	c2,0,3.6-1.5,3.6-3.5S14.4,6.9,12.4,6.9L12.4,6.9" />
		</symbol>
		<symbol viewBox="0 0 193.6 24" id="cw-reebok-2019-logo">
			<path transform="translate(0)" d="M193.6,0c-7.5,0.5-24.2,1.6-35.6,3.9c0,0,8,4.7,8.2,4.8C174.5,5.3,179.8,3.4,193.6,0z M120.4,0.4
	c27,4.9,40,11.2,61,20c-1.8-1.3-30.6-18.3-34.2-20L120.4,0.4L120.4,0.4z M142.2,7.8c-9.8,3.5-15.2,7.3-18.9,12h12.1
	c1.2-1.6,5.7-6.4,14.1-9.7C147.2,9.3,143.2,8.1,142.2,7.8z M152.1,11c-7,3.1-10.9,7.2-12.1,8.8h11c1.8-2.7,4.1-5,6.9-6.7
	C156,12.4,154,11.7,152.1,11L152.1,11z M0,0.4v19.4h4.8V4.7H11c1.8-0.2,3.4,1.2,3.5,2.9c0,0.2,0,0.3,0,0.5c0.1,1.8-1.3,3.3-3.1,3.4
	c-0.1,0-0.1,0-0.2,0H6.5v4h3.4c2.9,0.1,4.2,1.4,4.2,4.3V24h5v-5.5c0-2.4-1.7-4.5-4.1-4.9c2.8-0.8,4.8-3.5,4.7-6.4
	c0-4.2-3.9-6.7-7.6-6.7L0,0.4z M60.9,0.4v19.4h8.9c3.9,0,8.2-3,8.2-7.4c0.2-4.1-2.9-7.5-7-7.7c-0.1,0-0.1,0-0.2,0h-3.2v4.1h2.2
	c1.8,0.1,3.3,1.6,3.2,3.4c0.1,1.8-1.3,3.3-3.1,3.5h-4V0.4H60.9z M99.9,0.4v19.4h5v-6h1.8c2.5,0,4,1.4,4,3.7v2.4h4.9v-2.2
	c0.2-2.8-1.7-5.3-4.4-5.8c3.3-1,4.3-2.9,4.3-6.5V4.7h-4.9v0.8c0,2.4-1,4.2-3.3,4.2h-2.3V0.4H99.9z M88.8,4.5c-5.4,0-9,3.2-9,7.9
	c0,4.5,3.9,7.9,9,7.9c5.3,0,9-3.3,9-7.9C97.8,7.6,94.2,4.5,88.8,4.5z M38.2,4.7l-9.4,0c-4.2,0-7.5,3.4-7.5,7.5s3.4,7.5,7.5,7.5h9.5
	v-4.1h-8.7c-1.9,0-3.4-1.6-3.4-3.5c0-1.9,1.5-3.4,3.4-3.4h3.9l-3.2,5.3h4.7l3.2-5L38.2,4.7L38.2,4.7z M57.5,4.7l-9.4,0
	c-4.2,0-7.5,3.4-7.5,7.5s3.4,7.5,7.5,7.5l0,0h9.5v-4.1h-8.7c-1.9,0-3.4-1.6-3.4-3.5c0-1.9,1.5-3.4,3.4-3.4h3.9l-3.2,5.3h4.7l3.2-5
	L57.5,4.7L57.5,4.7z M88.8,8.3c2.2,0,4,1.8,4,4.1c0,2.2-1.8,4-4.1,4c-2.2,0-4-1.8-4-4.1C84.8,10.1,86.6,8.3,88.8,8.3
	C88.8,8.3,88.8,8.3,88.8,8.3z" />
		</symbol>
		<symbol viewBox="0 0 14 14" id="cw-share-price-negative">
			<polygon points="11.4,11.4 11.4,3.4 9.4,3.4 9.4,7.9 4.1,2.6 2.6,4.1 7.9,9.4 3.4,9.4 3.4,11.4 " />
		</symbol>
		<symbol viewBox="0 0 14 14" id="cw-share-price-neutral">
			<path d="m7.5 1.3-1.4 1.5 3.2 3.2h-7.5v2h7.5l-3.2 3.2 1.4 1.5 5.7-5.7z" />
		</symbol>
		<symbol viewBox="0 0 14 14" id="cw-share-price-positive">
			<polygon points="3.4,2.9 3.4,4.9 7.9,4.9 2.6,10.2 4.1,11.6 9.4,6.3 9.4,10.9 11.4,10.9 11.4,2.9 " />
		</symbol>
		<symbol viewBox="0 0 24 24" id="cw-team">
			<path
				d="M8.3,13.5c2.5,0,4.5-2,4.5-4.5s-2-4.5-4.5-4.5S3.9,6.5,3.9,9S5.9,13.5,8.3,13.5z M8.3,5.5c1.9,0,3.5,1.6,3.5,3.5
	s-1.6,3.5-3.5,3.5S4.9,10.9,4.9,9S6.4,5.5,8.3,5.5z M21.7,13.2h-7.4l-1.4,1.9H3.1L0,19.3l0.8,0.6l2.8-3.8h9.3l2.9,3.8l0.8-0.6
	l-2.8-3.7l1-1.4h6.4l2,2.6l0.8-0.6L21.7,13.2z M18,12.4c1.8,0,3.3-1.5,3.3-3.3S19.8,5.8,18,5.8s-3.3,1.5-3.3,3.3
	C14.8,10.9,16.3,12.4,18,12.4z M18,6.8c1.3,0,2.3,1,2.3,2.3s-1,2.3-2.3,2.3c-1.2,0-2.3-1.1-2.3-2.3C15.8,7.8,16.9,6.8,18,6.8z" />
		</symbol>
		<symbol viewBox="0 0 24 24" id="cw-twitter">
			<path d="M7.5,22.1c7.7,0.1,14-6.1,14-13.8c0-0.1,0-0.1,0-0.2c0-0.2,0-0.4,0-0.6c1-0.7,1.8-1.6,2.5-2.5c-0.9,0.4-1.9,0.7-2.8,0.8
	c1-0.6,1.8-1.6,2.2-2.7c-1,0.6-2,1-3.1,1.2c-1.9-2-5-2.1-7-0.2c-1.3,1.2-1.8,3-1.4,4.7c-4-0.2-7.6-2.1-10.2-5.1
	C0.4,5.7,1,8.6,3.2,10.1C2.4,10,1.6,9.8,1,9.4c0,0,0,0,0,0.1c0,2.3,1.7,4.4,4,4.8c-0.7,0.2-1.5,0.2-2.2,0.1c0.6,2,2.5,3.4,4.6,3.4
	c-1.7,1.4-3.9,2.1-6.1,2.1c-0.4,0-0.8,0-1.2-0.1C2.3,21.3,4.9,22.1,7.5,22.1" />
		</symbol>
		<symbol viewBox="0 0 24 24" id="cw-xing">
			<path d="M15.9,23.4c-0.4,0-0.7-0.3-0.9-0.6c0,0-4.5-8.6-4.5-8.6l7-13.1c0.1-0.4,0.5-0.6,0.8-0.6h3.2c0.2,0,0.3,0.1,0.4,0.2
	c0.1,0.2,0.1,0.4,0,0.5l-7,13c0,0,0,0,0,0l4.5,8.5c0.1,0.2,0.1,0.4,0,0.5c-0.1,0.1-0.3,0.2-0.4,0.2L15.9,23.4z M3.9,16.6
	c-0.2,0-0.3-0.1-0.4-0.2c-0.1-0.2-0.1-0.3,0-0.5l3.4-6.2c0,0,0,0,0,0L4.7,5.7c-0.1-0.2-0.1-0.3,0-0.5C4.8,5.1,5,5,5.1,5h3.2
	C8.7,5,9,5.3,9.2,5.7c0,0,2.2,3.9,2.2,4l-3.4,6.3c-0.1,0.4-0.5,0.6-0.9,0.6H3.9z" />
		</symbol>
		<symbol viewBox="0 0 30 16" id="de">
			<path d="M0 10.67h30V16H0z" fill="#ffce00" />
			<path d="M0 0h30v5.33H0z" />
			<path d="M0 5.33h30v5.34H0z" fill="#d00" />
		</symbol>
		<symbol viewBox="0 0 30 16" id="en">
			<path
				d="M0 0h30v1.23H0zm0 2.46h30v1.23H0zm0 2.46h30v1.24H0zm0 2.46h30v1.24H0zm0 2.47h30v1.23H0zm0 2.46h30v1.23H0zm0 2.46h30V16H0z"
				fill="#b22234" />
			<path
				d="M0 1.23h30v1.23H0zm0 2.46h30v1.23H0zm0 2.46h30v1.23H0zm0 2.47h30v1.23H0zm0 2.46h30v1.23H0zm0 2.46h30v1.23H0z"
				fill="#fff" />
			<path d="M0 0h12.16v8.62H0z" fill="#192f5d" />
			<path
				d="M1 .37l.11.34h.36l-.28.21.11.34-.3-.21-.28.21.11-.34L.54.71h.37zm2 0l.11.34h.36l-.25.21.11.34L3 1.05l-.29.21.15-.34-.29-.21h.36zm2 0l.11.34h.35l-.22.21.11.34-.29-.21-.29.21.11-.34-.29-.21H5zm2 0l.2.34h.36l-.29.21.11.34-.29-.21-.29.21.11-.34-.29-.21H7zm2 0l.11.34h.36L9.3.92l.11.34-.29-.21-.29.21.11-.34-.29-.21H9zm2 0l.11.34h.36l-.3.21.12.34-.29-.21-.29.21.29-.34-.32-.21H11zm-9 .86l.11.34h.39l-.29.21.11.34L2 1.91l-.29.21.1-.34-.28-.21h.36zm2 0l.12.34h.35l-.29.21.11.34L4 1.91l-.29.21.11-.34-.29-.21h.36zm2 0l.11.34h.36l-.29.21.11.34L6 1.91l-.29.21.11-.34-.29-.21H6zm2 0l.11.34h.35l-.29.21.12.34L8 1.91l-.29.21.11-.34-.29-.21H8zm2 0l.11.34h.36l-.29.21.11.34-.29-.21-.29.21.29-.34-.29-.21H10zm-9 .86l.11.35h.36l-.29.21.12.35-.3-.22L.72 3l.11-.35-.29-.22h.37zm2 0l.11.34h.36l-.29.21.15.36L3 2.77 2.75 3l.11-.34-.29-.21h.36zm2 0l.11.34h.35l-.29.21.18.36-.29-.21-.29.21.11-.34-.29-.21H5zm2 0l.11.34h.36l-.29.21.2.36-.29-.21L6.8 3l.11-.34-.29-.21H7zm2 0l.11.34h.36l-.29.21.23.36-.29-.21-.29.21.11-.34-.29-.21H9zm2 0l.11.34h.36l-.3.21.12.34-.29-.21-.14.23.14-.36-.29-.21H11zM2 3l.11.34h.39l-.29.21.11.34L2 3.63l-.29.21.11-.34-.29-.21h.36zm2 0l.12.34h.35l-.29.21.11.34L4 3.68l-.29.21.12-.34-.3-.21h.36zm2 0l.11.34h.36l-.29.21.11.34L6 3.68l-.29.21.19-.39-.29-.21H6zm2 0l.11.34h.35l-.28.21.11.34L8 3.68l-.29.21.11-.34-.29-.21H8zm2 0l.11.34h.36l-.29.21.11.35-.29-.22-.29.21.29-.39-.28-.21H10zm-9 .82l.11.34h.36l-.29.21.11.34L1 4.5l-.28.21.1-.34-.28-.21h.37zm2 0l.11.34h.36l-.29.21.11.34L3 4.5l-.29.21.11-.34-.29-.21h.36zm2 0l.11.34h.35l-.29.21.11.34-.22-.21-.29.21.11-.34-.29-.21H5zm2 0l.11.34h.36l-.29.21.11.34-.2-.21-.29.21.11-.34-.29-.21H7zm2 0l.11.34h.36l-.29.21.11.34-.17-.21-.29.21.11-.34-.29-.21H9zm2 0l.11.34h.36l-.3.21.12.34L11 4.5l-.29.21.29-.34-.29-.21H11zm-9 .86l.14.32h.36l-.29.21.11.34L2 5.36l-.29.21.11-.34L1.56 5h.36zm2 0l.17.32h.35l-.29.21.11.34-.29-.21-.29.21.11-.34L3.58 5h.36zm2 0l.19.32h.36l-.29.21.11.34-.29-.21-.29.21.11-.35-.29-.2H6zm2 0l.22.32h.35l-.28.21.11.34-.29-.21-.29.21.11-.34L7.64 5H8zm2 0l.11.34h.36l-.29.21.11.34-.29-.21-.29.21.29-.34L9.66 5H10zm-9 .86l.11.34h.36l-.29.21.11.34L1 6.22l-.29.21.11-.34-.28-.21h.37zm2 0l.11.34h.36l-.29.21.11.34L3 6.22l-.29.21.11-.34-.29-.21h.36zm2 0l.11.34h.35l-.29.21.11.34-.29-.21-.29.21.11-.34-.29-.21H5zm2 0l.11.34h.36l-.29.21.11.34L7 6.22l-.29.21.11-.34-.29-.21H7zm2 0l.11.34h.36l-.29.21.11.34L9 6.22l-.29.21.11-.34-.29-.21H9zm2 0l.11.34h.36l-.3.21.12.34-.29-.21-.29.21.29-.34-.29-.21H11zM2 6.4l.11.34h.39L2.21 7l.11.34L2 7.08l-.29.21.14-.29-.29-.21h.36zm2 0l.12.34h.35L4.23 7l.11.34-.29-.21-.29.21.12-.34-.3-.21h.36zm2 0l.11.34h.36L6.26 7l.11.34-.29-.21-.29.21L5.9 7l-.29-.21H6zm2 0l.11.34h.36L8.29 7l.11.34-.29-.21-.29.21.11-.34-.29-.21H8zm2 0l.11.34h.36l-.16.26.11.34-.29-.21-.29.21L10 7l-.29-.21H10zm-9 .86l.12.34h.35l-.29.21.11.34L1 7.94l-.28.21.1-.34-.28-.21h.37zm2 0l.11.34h.36l-.29.21.11.34L3 7.94l-.29.21.11-.34-.25-.21h.36zm2 0l.11.34h.35l-.28.21.11.34L5 7.94l-.29.21.11-.34-.22-.21H5zm2 0l.11.34h.36l-.29.21.11.34L7 7.94l-.29.21.11-.34-.2-.21H7zm2 0l.11.34h.36l-.29.21.11.34L9 7.94l-.29.21.11-.34-.17-.21H9zm2 0l.11.34h.36l-.29.21.11.34-.29-.21-.29.21.29-.34-.29-.21H11z"
				fill="#fff" />
		</symbol>
		<symbol viewBox="0 0 20 24" id="expand">
			<path d="M12 10l7-7M1 21l7-7m-7 0v7h7m11-11V3h-7" fill="none" stroke="currentColor" stroke-miterlimit="10"
				stroke-width="2" />
		</symbol>
		<symbol viewBox="0 0 24 24" id="facebook">
			<g fill="none" fill-rule="evenodd">
				<path d="M0 24h24V0H0z" />
				<path
					d="M23 12.067C23 5.955 18.075 1 12 1S1 5.955 1 12.067C1 17.591 5.023 22.17 10.281 23v-7.734H7.488v-3.199h2.793V9.63c0-2.774 1.642-4.306 4.155-4.306 1.204 0 2.462.216 2.462.216v2.724h-1.387c-1.366 0-1.792.853-1.792 1.728v2.076h3.05l-.487 3.2h-2.563V23C18.977 22.17 23 17.591 23 12.067"
					fill="#1877F2" />
			</g>
		</symbol>
		<symbol viewBox="0 0 24 24" id="instagram">
			<g fill="none" fill-rule="evenodd">
				<path d="M0 24h24V0H0z" />
				<path
					d="M11.5 20c-2.632 0-2.941-.01-3.971-.059-1.022-.045-1.588-.22-1.969-.368a3.53 3.53 0 01-1.293-.84 3.54 3.54 0 01-.84-1.292c-.148-.382-.323-.948-.37-1.97C3.01 14.44 3 14.13 3 11.5c0-2.633.01-2.941.058-3.972.046-1.022.22-1.588.368-1.968.2-.518.453-.904.84-1.294a3.55 3.55 0 011.293-.84c.382-.147.948-.322 1.97-.368C8.56 3.01 8.87 3 11.5 3c2.632 0 2.941.01 3.971.058 1.022.046 1.588.22 1.969.368.517.2.904.453 1.293.84.388.39.64.776.84 1.293.148.38.323.947.37 1.97.047 1.03.057 1.338.057 3.971 0 2.632-.01 2.941-.058 3.971-.046 1.022-.22 1.588-.368 1.969a3.54 3.54 0 01-.84 1.293c-.39.388-.777.64-1.293.84-.382.148-.948.323-1.97.368-1.03.048-1.34.059-3.971.059" />
				<path
					d="M12 2c-2.716 0-3.057.012-4.123.061-1.064.047-1.791.216-2.428.464a4.875 4.875 0 00-1.77 1.154 4.875 4.875 0 00-1.154 1.77c-.248.637-.417 1.363-.464 2.428C2.012 8.943 2 9.284 2 12s.012 3.057.061 4.123c.047 1.065.216 1.791.464 2.428a4.875 4.875 0 001.154 1.77 4.875 4.875 0 001.77 1.154c.637.248 1.364.417 2.428.464C8.943 21.988 9.284 22 12 22s3.057-.012 4.123-.061c1.064-.047 1.791-.216 2.428-.464a4.875 4.875 0 001.77-1.154 4.875 4.875 0 001.154-1.77c.248-.637.417-1.363.464-2.428.049-1.066.061-1.407.061-4.123s-.012-3.057-.061-4.123c-.047-1.065-.216-1.791-.464-2.428a4.875 4.875 0 00-1.154-1.77 4.875 4.875 0 00-1.77-1.154c-.637-.248-1.364-.417-2.428-.464C15.057 2.012 14.716 2 12 2m0 1.802c2.67 0 2.986.01 4.041.058.975.044 1.504.207 1.856.344.467.182.8.399 1.151.748.349.351.566.684.748 1.151.137.352.3.881.344 1.856.048 1.055.058 1.371.058 4.041 0 2.67-.01 2.986-.058 4.041-.044.975-.207 1.504-.344 1.856-.182.467-.399.8-.748 1.151a3.129 3.129 0 01-1.151.748c-.352.137-.881.3-1.856.344-1.055.048-1.371.058-4.041.058-2.67 0-2.986-.01-4.041-.058-.975-.044-1.504-.207-1.856-.344a3.129 3.129 0 01-1.151-.748 3.129 3.129 0 01-.748-1.151c-.137-.352-.3-.881-.344-1.856-.048-1.055-.058-1.371-.058-4.041 0-2.67.01-2.986.058-4.041.044-.975.207-1.504.344-1.856.182-.467.399-.8.748-1.151a3.129 3.129 0 011.151-.748c.352-.137.881-.3 1.856-.344C9.014 3.812 9.33 3.802 12 3.802"
					fill="#000" />
				<path
					d="M12 15.245a3.245 3.245 0 110-6.49 3.245 3.245 0 010 6.49M12 7a5 5 0 100 10 5 5 0 000-10m6-1a1 1 0 11-2 0 1 1 0 012 0"
					fill="#000" />
			</g>
		</symbol>
		<symbol viewBox="0 0 300 189" id="logo">
			<path d="M299.1 188.2L191 0.900002L133.1 34.3L221.9 188.2H299.1Z" />
			<path d="M196.2 188.2L124.8 64.6L66.9 98L119 188.2H196.2Z" />
			<path d="M93.3 188.2L58.8 128.4L0.899994 161.8L16.1 188.2H93.3Z" />
		</symbol>
		<symbol viewBox="0 0 24 24" id="pinterest">
			<circle cx="12" cy="12" r="11" fill="#fff" />
			<path
				d="M12 1a11 11 0 00-4 21.25 10.83 10.83 0 010-3.16c.2-.86 1.29-5.47 1.29-5.47A4 4 0 019 12c0-1.53.89-2.67 2-2.67a1.37 1.37 0 011.39 1.54 22.13 22.13 0 01-.91 3.67 1.6 1.6 0 001.63 2c2 0 3.46-2.07 3.46-5A4.34 4.34 0 0012 7a4.76 4.76 0 00-5 4.78 4.25 4.25 0 00.82 2.51.31.31 0 01.07.31c-.08.35-.27 1.1-.3 1.25s-.16.24-.37.15C5.83 15.36 5 13.35 5 11.74c0-3.47 2.5-6.66 7.24-6.66A6.45 6.45 0 0119 11.43c0 3.79-2.39 6.84-5.7 6.84A2.93 2.93 0 0110.8 17s-.56 2.1-.69 2.62a12.37 12.37 0 01-1.37 2.88A11 11 0 1012 1z" />
		</symbol>
		<symbol viewBox="0 0 24 24" id="play-shadow">
			<path fill="#currentColor" d="M7 7.32l9.92 5.56L7 18.48V7.32M5 3.91v18l16-9-16-9z" />
			<path fill="#fff" d="M6 6.32l9.92 5.56L6 17.48V6.32M4 2.91v18l16-9-16-9z" />
		</symbol>
		<symbol viewBox="0 0 20 24" id="plus">
			<path d="M10 2v20m10-10H0" fill="none" stroke="currentColor" stroke-miterlimit="10" stroke-width="2" />
		</symbol>
		<symbol viewBox="0 0 24 24" id="reload">
			<g fill="none" fill-rule="evenodd" stroke="currentColor" stroke-width="2">
				<path d="M7.827 6.343A8 8 0 115.484 12v-1" stroke-linecap="square" />
				<path d="M2.007 13.427L5.484 9.95l3.478 3.477" />
			</g>
		</symbol>
		<symbol viewBox="0 0 20 24" id="search">
			<g fill="none" stroke="currentColor" stroke-linecap="square" stroke-miterlimit="10" stroke-width="2">
				<circle cx="8" cy="10" r="6" />
				<path d="M13 15l5 5" />
			</g>
		</symbol>
		<symbol viewBox="0 0 34 33.999" id="social-space-blog">
			<path id="social-space-blog_Pfad_588" data-name="Pfad 588"
				d="M47.9,38.788l3.974,12.041H42.239l-1.422-4.647H29.807l-1.422,4.647H19.255l4.008-12.093h5.23l6.675-19.78h11.5l6.462,19.832Zm-10.643-.052h6.525l-3.24-10.77Z"
				transform="translate(-19.255 -17.956)" fill="#db0012" fill-rule="evenodd" />
		</symbol>
		<symbol viewBox="0 0 24 24" id="social-space-facebook">
			<g fill="none" fill-rule="evenodd">
				<path d="M0 24h24V0H0z" />
				<path
					d="M23 12.067C23 5.955 18.075 1 12 1S1 5.955 1 12.067C1 17.591 5.023 22.17 10.281 23v-7.734H7.488v-3.199h2.793V9.63c0-2.774 1.642-4.306 4.155-4.306 1.204 0 2.462.216 2.462.216v2.724h-1.387c-1.366 0-1.792.853-1.792 1.728v2.076h3.05l-.487 3.2h-2.563V23C18.977 22.17 23 17.591 23 12.067"
					fill="#1877F2" />
			</g>
		</symbol>
		<symbol viewBox="0 0 34 34" id="social-space-instagram">
			<path id="social-space-instagram_instagram-2" data-name="instagram"
				d="M9.99,33.9a12.524,12.524,0,0,1-4.126-.789,8.321,8.321,0,0,1-3.01-1.961,8.334,8.334,0,0,1-1.962-3.01A12.585,12.585,0,0,1,.1,24.008C.019,22.175,0,21.568,0,17s.019-5.175.1-7.009A12.564,12.564,0,0,1,.891,5.865,8.35,8.35,0,0,1,2.853,2.853,8.35,8.35,0,0,1,5.865.891,12.564,12.564,0,0,1,9.991.1C11.824.019,12.431,0,17,0s5.18.019,7.011.1a12.53,12.53,0,0,1,4.126.79,8.319,8.319,0,0,1,3.01,1.961,8.3,8.3,0,0,1,1.961,3.01,12.542,12.542,0,0,1,.79,4.126c.083,1.833.1,2.44.1,7.009s-.02,5.187-.1,7.011a12.537,12.537,0,0,1-.789,4.126,8.7,8.7,0,0,1-4.971,4.971,12.57,12.57,0,0,1-4.127.79c-1.833.083-2.44.1-7.009.1S11.813,33.98,9.99,33.9Zm.143-30.733a9.4,9.4,0,0,0-3.158.585A5.283,5.283,0,0,0,5.02,5.02,5.294,5.294,0,0,0,3.747,6.974a9.339,9.339,0,0,0-.585,3.156c-.082,1.8-.1,2.343-.1,6.87s.017,5.062.1,6.871a9.4,9.4,0,0,0,.585,3.158,5.283,5.283,0,0,0,1.272,1.955,5.273,5.273,0,0,0,1.955,1.272,9.364,9.364,0,0,0,3.157.585c1.8.082,2.343.1,6.87.1s5.067-.018,6.87-.1a9.4,9.4,0,0,0,3.158-.585,5.632,5.632,0,0,0,3.226-3.227,9.352,9.352,0,0,0,.586-3.158c.082-1.78.1-2.315.1-6.868s-.017-5.09-.1-6.87a9.352,9.352,0,0,0-.586-3.158,5.632,5.632,0,0,0-3.226-3.227,9.4,9.4,0,0,0-3.158-.585c-1.8-.082-2.342-.1-6.87-.1S11.934,3.08,10.132,3.162ZM8.27,17A8.73,8.73,0,1,1,17,25.73,8.74,8.74,0,0,1,8.27,17Zm3.063,0A5.667,5.667,0,1,0,17,11.332,5.674,5.674,0,0,0,11.332,17Zm12.7-9.074a2.04,2.04,0,1,1,2.04,2.04A2.039,2.039,0,0,1,24.035,7.925Z"
				fill="#e12f67" />
		</symbol>
		<symbol viewBox="0 0 34 34.001" id="social-space-linkedin">
			<path id="social-space-linkedin_linkedin-2" data-name="linkedin"
				d="M31.483,34H2.509A2.485,2.485,0,0,1,0,31.547V2.45A2.483,2.483,0,0,1,2.509,0H31.483a2.532,2.532,0,0,1,1.806.744A2.4,2.4,0,0,1,34,2.45v29.1A2.489,2.489,0,0,1,31.483,34ZM21.314,16.781c2.62,0,2.62,2.486,2.62,4.3v7.89h5.04v-8.9c0-4.015-.733-7.73-6.05-7.73a5.321,5.321,0,0,0-4.771,2.62h-.068V12.747H13.246V28.973h5.039V20.948C18.286,18.887,18.645,16.781,21.314,16.781ZM5.041,12.747V28.973h5.043V12.747ZM7.564,4.681A2.924,2.924,0,1,0,10.486,7.6,2.928,2.928,0,0,0,7.564,4.681Z"
				fill="#0077b5" />
		</symbol>
		<symbol viewBox="0 0 24 24" id="social-space-twitter">
			<g fill="none" fill-rule="evenodd">
				<path d="M0 24h24V0H0z" />
				<path d="M23 12c0 6.075-4.925 11-11 11S1 18.075 1 12 5.925 1 12 1s11 4.925 11 11" fill="#1DA1F2" />
				<path
					d="M10.088 18c4.906 0 7.59-4.232 7.59-7.9 0-.121-.003-.24-.009-.36.521-.392.974-.88 1.331-1.438a5.16 5.16 0 01-1.532.437 2.77 2.77 0 001.173-1.536 5.219 5.219 0 01-1.693.674A2.617 2.617 0 0015 7c-1.473 0-2.668 1.244-2.668 2.777 0 .218.024.43.07.633-2.217-.116-4.183-1.221-5.498-2.901-.23.41-.361.887-.361 1.395 0 .964.47 1.814 1.186 2.312a2.568 2.568 0 01-1.208-.348v.036c0 1.345.92 2.468 2.14 2.722a2.577 2.577 0 01-1.205.048c.34 1.103 1.324 1.906 2.492 1.928A5.219 5.219 0 016 16.752 7.336 7.336 0 0010.088 18"
					fill="#FFF" />
			</g>
		</symbol>
		<symbol viewBox="0 0 34 34" id="social-space-youtube">
			<path id="social-space-youtube_youtube-2" data-name="youtube"
				d="M17,23.912h-.007c-.363,0-8.923-.088-11.554-.341-.129-.024-.283-.043-.462-.064a5.011,5.011,0,0,1-3.288-1.389A7.379,7.379,0,0,1,.34,18.743a51.318,51.318,0,0,1-.34-5.5V10.661a51.31,51.31,0,0,1,.34-5.5,7.375,7.375,0,0,1,1.35-3.375A4.687,4.687,0,0,1,4.881.367C4.96.359,5.033.352,5.1.344,9.8,0,16.922,0,16.993,0h.014C17.078,0,24.2,0,28.9.344c.065.008.138.015.218.022a4.683,4.683,0,0,1,3.189,1.418A7.459,7.459,0,0,1,33.66,5.16a51.316,51.316,0,0,1,.34,5.5v2.579a51.324,51.324,0,0,1-.34,5.5,7.3,7.3,0,0,1-1.352,3.375,4.683,4.683,0,0,1-3.189,1.418c-.08.008-.153.015-.218.022C24.278,23.892,17.3,23.912,17,23.912Zm-3.512-17.1v9.552l9.185-4.76L13.489,6.815Z"
				transform="translate(0 5.666)" fill="#cd201f" />
		</symbol>
		<symbol viewBox="0 0 24 24" id="twitter">
			<g fill="none" fill-rule="evenodd">
				<path d="M0 24h24V0H0z" />
				<path d="M23 12c0 6.075-4.925 11-11 11S1 18.075 1 12 5.925 1 12 1s11 4.925 11 11" fill="#1DA1F2" />
				<path
					d="M10.088 18c4.906 0 7.59-4.232 7.59-7.9 0-.121-.003-.24-.009-.36.521-.392.974-.88 1.331-1.438a5.16 5.16 0 01-1.532.437 2.77 2.77 0 001.173-1.536 5.219 5.219 0 01-1.693.674A2.617 2.617 0 0015 7c-1.473 0-2.668 1.244-2.668 2.777 0 .218.024.43.07.633-2.217-.116-4.183-1.221-5.498-2.901-.23.41-.361.887-.361 1.395 0 .964.47 1.814 1.186 2.312a2.568 2.568 0 01-1.208-.348v.036c0 1.345.92 2.468 2.14 2.722a2.577 2.577 0 01-1.205.048c.34 1.103 1.324 1.906 2.492 1.928A5.219 5.219 0 016 16.752 7.336 7.336 0 0010.088 18"
					fill="#FFF" />
			</g>
		</symbol>
		<symbol viewBox="0 0 24 24" id="youtube">
			<path
				d="M23.5 6.19a3 3 0 00-2.12-2.14c-1.88-.5-9.38-.5-9.38-.5s-7.51 0-9.38.5A3 3 0 00.5 6.19 31.67 31.67 0 000 12a31.67 31.67 0 00.5 5.81A3 3 0 002.62 20c1.87.5 9.38.5 9.38.5s7.5 0 9.38-.5a3 3 0 002.12-2.14A31.67 31.67 0 0024 12a31.67 31.67 0 00-.5-5.81z" />
			<path fill="#fff" d="M9.54 15.57L15.82 12 9.54 8.43v7.14z" />
		</symbol>
		<symbol viewBox="0 0 1200 1227" id="twitter-x">
			<path
				d="M714.163 519.284L1160.89 0H1055.03L667.137 450.887L357.328 0H0L468.492 681.821L0 1226.37H105.866L515.491 750.218L842.672 1226.37H1200L714.137 519.284H714.163ZM569.165 687.828L521.697 619.934L144.011 79.6944H306.615L611.412 515.685L658.88 583.579L1055.08 1150.3H892.476L569.165 687.854V687.828Z"
				fill="#000" />
		</symbol>
		<symbol viewBox="0 0 644 644" id="adidas-foundation">
			<path d="M392.996 361.76L341.522 272.605L313.963 288.518L356.249 361.76H392.996Z" fill="#121212" />
			<path d="M343.977 361.759L310.006 302.926L282.451 318.834L307.231 361.759H343.977Z" fill="#121212" />
			<path d="M295 361.759L278.573 333.305L251.014 349.217L258.258 361.759H295Z" fill="#121212" />
			<path d="M137.173 228.023L146.988 232.774L142.866 241.318L133.051 236.567L137.173 228.023Z"
				fill="#121212" />
			<path
				d="M170.449 153.285L212.783 181.883L205.272 188.952L196.433 182.493L189.245 189.252L195.195 198.429L188.498 204.722L162.709 160.568L170.434 153.304L170.444 153.29L170.449 153.285ZM184.495 182.64L190.097 177.366L178.978 169.569C175.922 167.408 174.694 166.313 172.49 164.19C173.504 165.595 175.675 168.674 177.046 170.783L184.5 182.65V182.64H184.495Z"
				fill="#121212" />
			<path
				d="M224.948 117.093C240.151 110.11 247.91 122 252.208 131.377C258.881 145.91 257.61 156.939 247.496 161.589L234.806 167.42L214.02 122.124L224.948 117.102V117.093ZM240.251 155.292L242.964 154.044C244.659 153.264 245.968 152.169 246.539 150.922C247.757 148.39 245.101 141.878 242.669 136.58C238.09 126.598 234.863 122.072 230.051 124.29L226.724 125.818L240.251 155.296V155.287V155.292Z"
				fill="#121212" />
			<path d="M289.73 97.5859L297.86 146.762L287.769 148.432L279.635 99.2567L289.735 97.5859H289.726H289.73Z"
				fill="#121212" />
			<path
				d="M342.231 96.2471C358.867 97.9893 359.49 112.174 358.419 122.437C356.758 138.34 350.056 147.184 338.985 146.027L325.096 144.575L330.274 95L342.231 96.2519V96.2424V96.2471ZM335.958 136.921L338.928 137.231C340.789 137.421 342.464 137.15 343.602 136.369C345.944 134.808 346.972 127.858 347.577 122.061C348.724 111.132 348.238 105.601 342.974 105.048L339.332 104.668L335.962 136.926L335.958 136.921Z"
				fill="#121212" />
			<path
				d="M420.065 117.559L409.865 167.639L400.474 163.398L403.054 152.76L394.067 148.709L387.875 157.72L379.502 153.94L410.393 113.199L420.061 117.559H420.065ZM398.332 141.783L405.343 144.948L408.29 131.687C409.108 128.041 409.651 126.48 410.779 123.624C409.865 125.104 407.856 128.288 406.428 130.35L398.332 141.774V141.783Z"
				fill="#121212" />
			<path
				d="M474.871 168.819L466.932 166.32C468.683 163.083 468.755 160.165 466.508 158.19C464.433 156.362 461.967 156.785 460.054 158.98C457.988 161.336 458.045 163.083 460.982 169.242C465.09 177.82 463.462 182.951 459.521 187.454C453.214 194.647 444.798 195.508 437.787 189.349C431.556 183.875 430.966 177.292 435.655 169.576L443.647 172.812C441.138 177.372 440.948 180.195 443.704 182.604C446.179 184.77 448.997 184.274 451.015 181.966C452.843 179.891 452.857 177.715 451.429 174.574C446.607 163.868 447.297 159.013 452.414 153.168C456.608 148.394 465.451 145.328 472.187 151.24C477.123 155.576 478.451 161.322 474.866 168.804V168.819H474.871Z"
				fill="#121212" />
			<path d="M510.164 235.104L500.383 239.931L496.189 231.42L505.971 226.594L510.164 235.104Z" fill="#121212" />
			<path
				d="M144.75 334.752L136.011 334.71L136.078 320.511L123.159 320.454L123.112 331.363L114.82 331.321L114.868 320.411L95 320.32L95.0476 310.082L144.86 310.325L144.745 334.762V334.752H144.75Z"
				fill="#121212" />
			<path
				d="M135.991 404.051C119.137 409.949 110.393 407.545 106.913 397.597C103.263 387.158 110.407 379.985 126.553 374.339C142.984 368.594 151.97 370.993 155.421 380.865C158.872 390.738 152.979 398.111 135.987 404.056V404.047L135.991 404.051ZM115.381 394.874C116.685 398.611 119.522 398.335 132.84 393.67C144.616 389.552 148.391 387.672 146.963 383.579C145.435 379.204 138.033 381.794 129.147 384.907C118.499 388.634 113.953 390.776 115.381 394.869V394.874Z"
				fill="#121212" />
			<path
				d="M186.019 436.229L161.273 457.987C156.394 462.281 155.861 464.727 158.226 467.426C160.292 469.782 162.491 470.239 168.103 465.308L192.626 443.75L198.342 450.262L173.658 471.967C163.781 480.645 157.203 480.064 150.949 472.929C143.604 464.565 145.322 458.373 154.809 450.033L179.27 428.527L186.024 436.215V436.224L186.019 436.229Z"
				fill="#121212" />
			<path
				d="M238.553 478.97L235.617 501.856C235.44 503.194 234.893 506.597 233.16 512.843C236.407 505.103 238.187 501.233 239.134 499.367L247.226 483.359L254.627 487.105L232.156 531.597L224.755 527.851L227.915 500.89C228.263 498.053 228.843 494.745 229.9 490.504C227.096 497.544 224.607 502.808 224.131 503.751L214.564 522.691L207.162 518.945L229.633 474.453L238.563 478.97L238.553 478.98V478.97Z"
				fill="#121212" />
			<path
				d="M306.157 499.089C322.855 500.217 323.988 514.378 323.293 524.665C322.212 540.625 315.834 549.702 304.739 548.955L290.807 548.008L294.167 498.266L306.167 499.08L306.157 499.089ZM301.378 539.968L304.358 540.168C306.219 540.292 307.895 539.959 308.994 539.13C311.274 537.483 312.05 530.496 312.44 524.684C313.178 513.721 312.507 508.209 307.214 507.852L303.563 507.605L301.383 539.963V539.973L301.378 539.968Z"
				fill="#121212" />
			<path
				d="M378.546 490.606L403.778 535.041L393.91 538.03L388.865 528.315L379.431 531.171L380.692 542.033L371.906 544.699L368.402 493.681L378.55 490.602L378.541 490.611L378.546 490.606ZM378.098 523.15L385.457 520.918L378.96 508.985C377.184 505.696 376.561 504.168 375.533 501.278C375.813 502.987 376.394 506.719 376.684 509.208L378.093 523.15H378.098Z"
				fill="#121212" />
			<path
				d="M434.483 460.04L439.885 467.746L433.04 472.554L456.24 505.655L447.867 511.534L424.668 478.433L418.004 483.107L412.602 475.4L434.492 460.035H434.483V460.04Z"
				fill="#121212" />
			<path d="M461.499 431.789L499.811 463.657L493.271 471.53L454.959 439.662L461.499 431.789Z" fill="#121212" />
			<path
				d="M515.325 384.387C531.856 391.122 536.835 398.719 532.86 408.477C528.695 418.725 518.585 419.363 502.745 412.909C486.632 406.34 481.477 398.595 485.419 388.904C489.36 379.213 498.656 377.594 515.325 384.387ZM524.711 404.912C526.206 401.242 523.897 399.581 510.827 394.249C499.275 389.542 495.2 388.442 493.568 392.464C491.816 396.758 499.084 399.714 507.8 403.27C518.247 407.53 523.074 408.934 524.711 404.912Z"
				fill="#121212" />
			<path
				d="M499.117 326.404L520.798 318.564C522.069 318.108 525.344 317.037 531.684 315.723C523.321 316.38 519.07 316.556 516.981 316.57L499.055 316.684L498.998 308.388L548.81 308.055L548.867 316.351L523.468 325.857C520.789 326.847 517.585 327.841 513.33 328.836C520.865 328.113 526.691 327.922 527.733 327.922L548.943 327.78L549 336.076L499.188 336.409L499.122 326.394H499.112L499.117 326.404Z"
				fill="#121212" />
			<path fill-rule="evenodd" clip-rule="evenodd"
				d="M322.377 187.732C248.017 187.732 187.737 248.014 187.737 322.376C187.737 396.737 248.017 457.019 322.377 457.019C396.736 457.019 457.017 396.737 457.017 322.376C457.017 248.014 396.736 187.732 322.377 187.732ZM177.146 322.376C177.146 242.164 242.168 177.141 322.377 177.141C402.585 177.141 467.607 242.164 467.607 322.376C467.607 402.587 402.585 467.61 322.377 467.61C242.168 467.61 177.146 402.587 177.146 322.376Z"
				fill="#121212" />
		</symbol>
	</defs>
</svg>
